<svg xmlns="http://www.w3.org/2000/svg" width="192" height="192" viewBox="0 0 192 192">
  <rect width="192" height="192" rx="24" fill="#08080f"/>
  <!--
    Pixel-art B: cell=18, gap=4, step=22
    col x: 54, 76, 98, 120 | row y: 10,32,54,76,98,120,142,164
  -->
  <!-- Row 0: top bar cols 0,1,2 -->
  <rect x="54"  y="10"  width="18" height="18" rx="3" fill="#22c55e"/>
  <rect x="76"  y="10"  width="18" height="18" rx="3" fill="#22c55e"/>
  <rect x="98"  y="10"  width="18" height="18" rx="3" fill="#22c55e"/>
  <!-- Row 1: col 0 + col 3 -->
  <rect x="54"  y="32"  width="18" height="18" rx="3" fill="#22c55e"/>
  <rect x="120" y="32"  width="18" height="18" rx="3" fill="#22c55e"/>
  <!-- Row 2: col 0 + col 3 -->
  <rect x="54"  y="54"  width="18" height="18" rx="3" fill="#22c55e"/>
  <rect x="120" y="54"  width="18" height="18" rx="3" fill="#22c55e"/>
  <!-- Row 3: middle bar cols 0,1,2 -->
  <rect x="54"  y="76"  width="18" height="18" rx="3" fill="#22c55e"/>
  <rect x="76"  y="76"  width="18" height="18" rx="3" fill="#22c55e"/>
  <rect x="98"  y="76"  width="18" height="18" rx="3" fill="#22c55e"/>
  <!-- Row 4: col 0 + col 3 -->
  <rect x="54"  y="98"  width="18" height="18" rx="3" fill="#22c55e"/>
  <rect x="120" y="98"  width="18" height="18" rx="3" fill="#22c55e"/>
  <!-- Row 5: col 0 + col 3 -->
  <rect x="54"  y="120" width="18" height="18" rx="3" fill="#22c55e"/>
  <rect x="120" y="120" width="18" height="18" rx="3" fill="#22c55e"/>
  <!-- Row 6: col 0 + col 3 -->
  <rect x="54"  y="142" width="18" height="18" rx="3" fill="#22c55e"/>
  <rect x="120" y="142" width="18" height="18" rx="3" fill="#22c55e"/>
  <!-- Row 7: bottom bar cols 0,1,2 -->
  <rect x="54"  y="164" width="18" height="18" rx="3" fill="#22c55e"/>
  <rect x="76"  y="164" width="18" height="18" rx="3" fill="#22c55e"/>
  <rect x="98"  y="164" width="18" height="18" rx="3" fill="#22c55e"/>
</svg>
