<svg xmlns="http://www.w3.org/2000/svg" width="512" height="512" viewBox="0 0 512 512">
  <rect width="512" height="512" rx="64" fill="#08080f"/>
  <!--
    Pixel-art B: cell=50, gap=10, step=60
    col x: 141,201,261,321 | row y: 21,81,141,201,261,321,381,441
  -->
  <!-- Row 0: top bar cols 0,1,2 -->
  <rect x="141" y="21"  width="50" height="50" rx="8" fill="#22c55e"/>
  <rect x="201" y="21"  width="50" height="50" rx="8" fill="#22c55e"/>
  <rect x="261" y="21"  width="50" height="50" rx="8" fill="#22c55e"/>
  <!-- Row 1: col 0 + col 3 -->
  <rect x="141" y="81"  width="50" height="50" rx="8" fill="#22c55e"/>
  <rect x="321" y="81"  width="50" height="50" rx="8" fill="#22c55e"/>
  <!-- Row 2: col 0 + col 3 -->
  <rect x="141" y="141" width="50" height="50" rx="8" fill="#22c55e"/>
  <rect x="321" y="141" width="50" height="50" rx="8" fill="#22c55e"/>
  <!-- Row 3: middle bar cols 0,1,2 -->
  <rect x="141" y="201" width="50" height="50" rx="8" fill="#22c55e"/>
  <rect x="201" y="201" width="50" height="50" rx="8" fill="#22c55e"/>
  <rect x="261" y="201" width="50" height="50" rx="8" fill="#22c55e"/>
  <!-- Row 4: col 0 + col 3 -->
  <rect x="141" y="261" width="50" height="50" rx="8" fill="#22c55e"/>
  <rect x="321" y="261" width="50" height="50" rx="8" fill="#22c55e"/>
  <!-- Row 5: col 0 + col 3 -->
  <rect x="141" y="321" width="50" height="50" rx="8" fill="#22c55e"/>
  <rect x="321" y="321" width="50" height="50" rx="8" fill="#22c55e"/>
  <!-- Row 6: col 0 + col 3 -->
  <rect x="141" y="381" width="50" height="50" rx="8" fill="#22c55e"/>
  <rect x="321" y="381" width="50" height="50" rx="8" fill="#22c55e"/>
  <!-- Row 7: bottom bar cols 0,1,2 -->
  <rect x="141" y="441" width="50" height="50" rx="8" fill="#22c55e"/>
  <rect x="201" y="441" width="50" height="50" rx="8" fill="#22c55e"/>
  <rect x="261" y="441" width="50" height="50" rx="8" fill="#22c55e"/>
</svg>
