<svg xmlns="http://www.w3.org/2000/svg" version="1.1" viewBox="0 270.336 1027.0750750750751 912.384" style="max-height: 500px" width="1027.0750750750751" height="912.384">
<path transform="translate(215,529)" fill="currentColor" d="M0 0 C4.20413585 1.59777134 6.76810215 4.72978924 9.6875 8 C10.48631592 8.88002686 10.48631592 8.88002686 11.30126953 9.77783203 C12.87382909 11.51298867 14.43826138 13.25510405 16 15 C17.13501953 16.26457031 17.13501953 16.26457031 18.29296875 17.5546875 C19.70626355 19.12972899 21.11900535 20.70526684 22.53125 22.28125 C26.21226013 26.33502065 29.95840131 30.32712392 33.69995117 34.32495117 C38.277751 39.21858897 42.8193522 44.14326758 47.33984375 49.08984375 C49.18285972 51.10606533 51.02861363 53.11939517 52.87890625 55.12890625 C56.88462786 59.48215622 60.88391295 63.8337072 64.75 68.3125 C67.4492485 71.42948934 70.30545643 74.32683529 73.24609375 77.21484375 C75.71585847 79.72861319 77.98960569 82.39757968 80.2890625 85.06640625 C82.74190028 87.83844894 85.35110994 90.41571701 88 93 C86.73089274 96.42915345 85.17861544 99.56891404 83.38647461 102.75366211 C65.2145104 135.25090634 57.57016887 172.18610221 57.5 209.125 C57.49541779 210.0170816 57.49083557 210.90916321 57.4861145 211.82827759 C57.45206664 228.51654026 59.46645886 244.75446552 63.3125 261 C63.52342285 261.90242432 63.7343457 262.80484863 63.95166016 263.73461914 C67.57089977 278.87550082 71.87877124 293.11625527 79 307 C79.43618652 307.87060059 79.87237305 308.74120117 80.32177734 309.63818359 C86.49025833 321.94795321 92.87132237 333.86738859 101 345 C101.39896484 345.54769043 101.79792969 346.09538086 102.20898438 346.65966797 C114.3724404 363.19589623 127.87778525 378.23479813 144 391 C145.01320313 391.84175781 146.02640625 392.68351562 147.0703125 393.55078125 C182.21419557 422.48284277 226.18320174 438.64321111 271 444 C272.03640625 444.13277344 273.0728125 444.26554687 274.140625 444.40234375 C314.13059836 448.6702795 357.35706331 441.3603104 394 425 C394.70334473 424.69400879 395.40668945 424.38801758 396.13134766 424.07275391 C419.68005049 413.76416317 441.23338887 399.55885893 460 382 C460.92554688 381.17628906 461.85109375 380.35257813 462.8046875 379.50390625 C468.29789478 374.61361197 473.29243852 369.63916312 478 364 C478.80824219 363.09121094 479.61648438 362.18242188 480.44921875 361.24609375 C495.72848381 343.94975484 507.10082024 323.75052337 517 303 C517.59760132 301.76310425 517.59760132 301.76310425 518.20727539 300.5012207 C521.42081259 293.67667764 523.87922453 286.77795917 526.0625 279.5625 C526.57901123 277.86395874 526.57901123 277.86395874 527.10595703 276.13110352 C529.14123876 269.28528736 530.96474574 262.43963354 532.375 255.4375 C532.5181665 254.72730713 532.66133301 254.01711426 532.80883789 253.28540039 C535.55779597 238.48909595 536.37742851 223.83129731 536.3125 208.8125 C536.31034485 207.91169708 536.3081897 207.01089417 536.30596924 206.08279419 C536.25399517 192.52492288 535.83494742 179.30422335 533 166 C532.70996094 164.59886963 532.70996094 164.59886963 532.4140625 163.16943359 C527.59001566 140.52693598 519.56203413 118.99453227 508.2109375 98.8203125 C507 96 507 96 507.07421875 93.90234375 C508.3062836 91.37063244 509.88672792 89.62012675 511.8125 87.5625 C513.03839844 86.23992187 513.03839844 86.23992187 514.2890625 84.890625 C515.18367187 83.93671875 516.07828125 82.9828125 517 82 C517.92574542 80.9959577 518.85019967 79.99072356 519.7734375 78.984375 C524.64507667 73.67812216 529.55264537 68.40617952 534.4765625 63.1484375 C539.14379475 58.16343625 543.78745752 53.1777122 548.24609375 48.00390625 C551.93896733 43.78465425 555.76719397 39.68482363 559.56494141 35.56005859 C561.40775454 33.55672822 563.2457544 31.54901806 565.08374023 29.54125977 C568.92417865 25.34621279 572.77438667 21.16059028 576.63793945 16.98681641 C581.82508251 11.38205399 586.95926093 5.73754712 592 0 C610.54987565 7.50148817 626.44194073 50.47051715 634 68 C643.14708595 89.87849859 650.99144459 112.47398 655.56005859 135.78076172 C656.02393672 138.12074626 656.52081575 140.45236423 657.01953125 142.78515625 C665.04140171 181.19584757 665.97974362 222.20002698 660 261 C659.83975342 262.09441406 659.83975342 262.09441406 659.67626953 263.2109375 C658.97796686 267.85252896 658.02894099 272.42308093 657 277 C656.76265137 278.07475586 656.52530273 279.14951172 656.28076172 280.25683594 C653.45947953 292.95682674 650.58038238 305.64861815 646.875 318.125 C646.65803467 318.86202148 646.44106934 319.59904297 646.2175293 320.35839844 C644.24600306 326.75151705 641.63274219 332.85564148 639 339 C638.59104492 339.96647461 638.18208984 340.93294922 637.76074219 341.92871094 C623.05397727 376.54724783 604.73335495 408.26223437 580.55859375 437.1328125 C579.10883532 438.86961584 577.67785436 440.62018769 576.25 442.375 C570.04206568 449.908998 563.31588522 456.8887029 556.4375 463.8125 C555.57511719 464.68414795 554.71273437 465.5557959 553.82421875 466.45385742 C548.59191481 471.66089171 543.17100543 476.46316328 537.39941406 481.06591797 C535.30374398 482.75516282 533.29686157 484.49531692 531.3125 486.3125 C505.00141399 509.50921256 472.75313828 527.53338649 440.6875 541.3125 C438.97119385 542.05028687 438.97119385 542.05028687 437.22021484 542.80297852 C424.62065219 548.12812796 411.91559612 552.51873751 398.6875 556 C397.7274556 556.2547963 397.7274556 556.2547963 396.74801636 556.51473999 C384.78511063 559.68040833 372.73997166 562.24098739 360.57519531 564.50488281 C358.35898951 564.93097926 356.16071946 565.39566248 353.9609375 565.8984375 C310.22532839 575.69288655 259.75166558 571.86016342 216.43554688 561.56738281 C214.26992427 561.06288131 212.103492 560.60841323 209.921875 560.1796875 C187.85365911 555.57841982 165.39581752 547.5536726 145 538 C144.34966797 537.69562012 143.69933594 537.39124023 143.02929688 537.07763672 C138.29245389 534.83131103 133.64051744 532.43796042 129 530 C128.17661133 529.57235352 127.35322266 529.14470703 126.50488281 528.70410156 C112.37370677 521.33425377 99.08244944 513.09292271 86 504 C84.97108643 503.29182129 84.97108643 503.29182129 83.92138672 502.56933594 C75.5648504 496.8089845 67.68621454 490.62682427 60 484 C58.95972656 483.11054687 58.95972656 483.11054687 57.8984375 482.203125 C55.91402248 480.48819844 53.95326993 478.7503328 52 477 C51.10925781 476.20207031 50.21851563 475.40414063 49.30078125 474.58203125 C38.98601592 465.2694479 28.97530788 455.62267451 20 445 C19.11332609 443.98710059 18.22516699 442.97550034 17.3359375 441.96484375 C-26.89332976 391.46186989 -56.29984979 327.62834095 -65.69657898 261.14425659 C-65.97091957 259.2055095 -66.25606182 257.26829841 -66.54248047 255.33129883 C-68.30866464 241.75659921 -68.34090743 228.19635105 -68.31567383 214.52612305 C-68.31105936 211.8127375 -68.31791532 209.09980204 -68.33618164 206.38647461 C-68.48598111 183.89533107 -67.11032514 161.90631513 -62.375 139.875 C-62.12484131 138.69252686 -61.87468262 137.51005371 -61.61694336 136.29174805 C-57.1225789 115.77738753 -51.35865547 95.28720813 -43 76 C-42.55172852 74.9466748 -42.10345703 73.89334961 -41.64160156 72.80810547 C-30.60634982 46.98418789 -17.876739 21.84277051 0 0 Z"/>
<path transform="translate(215,355)" fill="currentColor" d="M0 0 C1.66951505 0.40510292 3.33548362 0.82482462 5 1.25 C5.928125 1.48203125 6.85625 1.7140625 7.8125 1.953125 C10.87888083 2.96022066 13.57701794 4.29715781 16.43798828 5.7734375 C22.44786239 8.6506633 28.73379078 10.95130367 34.9375 13.375 C35.67543793 13.66479736 36.41337585 13.95459473 37.17367554 14.25317383 C45.99291724 17.7163731 54.82155005 21.11154057 63.7890625 24.17529297 C68.5640482 25.81167856 73.17134487 27.71396393 77.78125 29.765625 C80.33047356 30.74323986 82.64172375 31.42975284 85.28125 32.046875 C98.077543 35.22425962 103.42834661 40.96388705 110.54589844 51.82666016 C112.72176282 55.07876639 115.12369039 58.13036373 117.5625 61.1875 C118.00795166 61.753479 118.45340332 62.31945801 118.91235352 62.90258789 C123.58208597 68.80924604 128.48762129 74.50863693 133.42773438 80.18945312 C135.05603822 82.06453097 136.67709641 83.94567961 138.296875 85.828125 C144.04809357 92.50304456 149.86463789 99.10085424 155.8125 105.6015625 C159.8591205 110.03839283 163.78926487 114.57113508 167.67578125 119.1484375 C173.27425575 125.73253938 178.95964203 132.20149969 184.8503418 138.52612305 C187.4461641 141.31356314 190.00975724 144.11783042 192.5 147 C195.58897481 150.57351987 198.78845925 154.03707432 202 157.5 C205.83423021 161.63546173 209.61870951 165.80043405 213.3125 170.0625 C218.79627591 176.35868716 224.45161132 182.50013867 230.125 188.625 C233.87381211 192.67213225 237.56452092 196.75490673 241.17578125 200.92578125 C244.8993506 205.15964704 248.74168426 209.28773782 252.56054688 213.43554688 C254.87742313 215.95361727 257.18852945 218.47696833 259.5 221 C262.27188682 224.02486473 265.04454714 227.04900604 267.8203125 230.0703125 C272.79430659 235.4864394 277.74089122 240.92542143 282.65234375 246.3984375 C287.07026753 251.29417333 291.53722673 256.14517002 296 261 C299.04886748 259.64872667 301.03099706 258.17366501 303.28515625 255.7265625 C304.1968457 254.74526367 304.1968457 254.74526367 305.12695312 253.74414062 C305.76568359 253.04482422 306.40441406 252.34550781 307.0625 251.625 C307.72572266 250.90763672 308.38894531 250.19027344 309.07226562 249.45117188 C311.05350977 247.30562012 313.02703157 245.15315978 315 243 C316.06064206 241.85104912 317.12179008 240.70256497 318.18359375 239.5546875 C322.57092049 234.8024315 326.89534016 230.00345943 331.1328125 225.1171875 C333.97931336 221.88956519 336.89893625 218.72941712 339.8125 215.5625 C342.72789956 212.39220211 345.62383078 209.20605243 348.5 206 C352.70298527 201.31495191 356.95912473 196.68094887 361.2265625 192.0546875 C363.31088657 189.77880629 365.34394931 187.46311888 367.3671875 185.1328125 C371.58133254 180.29944614 375.98531349 175.65467936 380.39453125 171 C384.14272038 167.02676432 387.78963239 162.98672005 391.37011719 158.86181641 C393.65342924 156.25358726 396.01226263 153.72407241 398.375 151.1875 C401.96076644 147.31573703 405.38119528 143.36717738 408.6875 139.25 C411.90103725 135.25448299 415.28546319 131.65999886 418.96484375 128.09765625 C422.16608476 124.79810458 424.96341597 121.18352917 427.83984375 117.6015625 C430.1931277 114.7674086 432.69955501 112.21054002 435.33984375 109.6484375 C438.41251727 106.59745344 441.1861678 103.28813346 444 100 C444.89571402 98.95692878 445.7915573 97.91396855 446.6875 96.87109375 C448.73465012 94.48682587 450.7782996 92.09960595 452.8203125 89.7109375 C454.88970698 87.2917862 456.96777307 84.88061267 459.0546875 82.4765625 C469.64329195 70.25643458 479.44744747 57.47117732 489.25 44.6171875 C489.98887451 43.66199219 489.98887451 43.66199219 490.74267578 42.6875 C492.09012888 40.94224433 492.09012888 40.94224433 493.3671875 38.6796875 C496.03334439 35.93699022 499.54680507 35.29441754 503.125 34.25 C514.16851159 30.78699262 524.91569586 26.65760333 535.6875 22.4375 C536.56411285 22.09506256 537.44072571 21.75262512 538.34390259 21.39981079 C547.9620087 17.63807974 557.54500702 13.80375993 567.0703125 9.8125 C568.25494835 9.31750755 568.25494835 9.31750755 569.46351624 8.81251526 C573.19675214 7.25074596 576.92357762 5.6760986 580.64135742 4.07788086 C581.96519566 3.51904532 583.28916267 2.96051471 584.61328125 2.40234375 C585.75579346 1.91241943 586.89830566 1.42249512 588.07543945 0.91772461 C591.01684939 -0.00528732 592.22075916 -0.23406291 595 1 C600.44290005 6.85838861 604.25168191 14.63695033 608.38012695 21.47265625 C613.5264918 29.95535103 618.97490253 38.2358249 624.421875 46.52734375 C625.00517578 47.42308105 625.58847656 48.31881836 626.18945312 49.24169922 C627.45650219 51.17200131 628.74339634 53.08935609 630.04492188 54.99658203 C630.69525391 55.96837402 631.34558594 56.94016602 632.015625 57.94140625 C632.61149414 58.81611572 633.20736328 59.6908252 633.82128906 60.59204102 C635 63 635 63 634.77783203 65.13769531 C623.54879328 92.02253763 602.24015002 117.57572954 584 140 C583.00203633 141.24694159 582.00469253 142.49437941 581.0078125 143.7421875 C575.03400805 151.1927328 568.92816319 158.4228337 562.4140625 165.40625 C560.3986071 167.57172311 558.43464732 169.76277751 556.5 172 C553.0932265 175.9308925 549.56997215 179.75196573 546.046875 183.578125 C543.49444857 186.35494057 540.97016712 189.14980717 538.5 192 C532.63587793 198.75136513 526.53559335 205.2954107 520.42578125 211.82421875 C519.51034546 212.80249634 519.51034546 212.80249634 518.57641602 213.80053711 C517.39726529 215.05912802 516.21685355 216.31653925 515.03491211 217.57250977 C512.14729656 220.65198787 509.31478441 223.76536417 506.546875 226.953125 C502.36570756 231.76181617 497.98696607 236.37458427 493.60546875 241 C489.8880085 244.94066179 486.27517287 248.94947944 482.72363281 253.04003906 C479.92850428 256.21840901 477.02667451 259.29415951 474.125 262.375 C469.45064643 267.35974542 464.8272352 272.38104909 460.2734375 277.4765625 C457.02758598 281.07934614 453.72918697 284.63275849 450.43432617 288.19067383 C447.49045401 291.37352847 444.57439213 294.57765854 441.6875 297.8125 C437.04502421 302.99815395 432.27399484 308.06071324 427.4909668 313.11645508 C423.81609155 317.01337128 420.24967594 320.98271288 416.73730469 325.02636719 C413.87798862 328.27464024 410.90847824 331.41661804 407.9375 334.5625 C406.62096681 335.96212019 405.30456373 337.36186278 403.98828125 338.76171875 C403.32650879 339.46474121 402.66473633 340.16776367 401.98291016 340.89208984 C391.67752132 351.82718255 391.67752132 351.82718255 381.5625 362.9375 C377.03430156 368.00436889 372.37977335 372.94869306 367.72558594 377.89941406 C362.26584628 383.70875185 356.85017046 389.55714134 351.45166016 395.42333984 C348.46819014 398.66371142 345.47885947 401.89867958 342.49047852 405.13452148 C340.03802604 407.79051678 337.58722375 410.44798568 335.140625 413.109375 C329.44632533 419.29874708 323.70835709 425.4444013 317.9375 431.5625 C313.12492735 436.66823591 308.31844685 441.77889949 303.5625 446.9375 C302.69753906 447.87464844 301.83257813 448.81179688 300.94140625 449.77734375 C298.97479977 451.84075179 298.97479977 451.84075179 298 454 C297.34 454 296.68 454 296 454 C294.52832031 452.52246094 294.52832031 452.52246094 292.828125 450.484375 C289.25548133 446.2836554 285.53780526 442.2564376 281.75 438.25 C276.39377653 432.56160763 271.08429487 426.83674624 265.81640625 421.06640625 C262.53009775 417.47692838 259.20101233 413.92764506 255.875 410.375 C252.06512396 406.30441071 248.27504603 402.2225092 244.5625 398.0625 C240.01271913 392.97047337 235.33273754 388.00457215 230.65527344 383.03027344 C225.95147071 378.02467284 221.29394718 372.98071097 216.66015625 367.91015625 C208.69367446 359.19498894 200.65294352 350.55136354 192.56958008 341.94458008 C188.18560518 337.27360925 183.82893683 332.5787117 179.49047852 327.86547852 C175.65834641 323.70507945 171.8008658 319.56889335 167.9375 315.4375 C160.40579916 307.37870364 152.92856307 299.27341618 145.5625 291.0625 C142.07551903 287.17629402 138.54668015 283.33157193 135 279.5 C130.71775392 274.87377683 126.47792188 270.21321377 122.26953125 265.51953125 C117.88128446 260.64789755 113.43626191 255.82787676 109 251 C98.63809743 239.72339154 98.63809743 239.72339154 93.5625 234.0625 C89.56344639 229.60559409 85.50545996 225.20586544 81.43725586 220.81225586 C78.47261317 217.6067918 75.53459436 214.38071711 72.625 211.125 C68.76820647 206.81777802 64.82835799 202.5932604 60.875 198.375 C56.72075419 193.94033575 52.60257558 189.49190766 48.63671875 184.88671875 C46.62126228 182.56341213 44.56151538 180.28251535 42.5 178 C39.23295665 174.37976277 36.00479224 170.73016435 32.8046875 167.05078125 C30.77041859 164.73911203 28.6977769 162.4646857 26.625 160.1875 C21.89428498 154.93824117 17.42916306 149.50441004 13 144 C12.08625558 142.87864698 11.17217861 141.75756489 10.2578125 140.63671875 C-6.695462 119.76676144 -21.92687237 97.67845751 -36.0625 74.8125 C-36.58150879 73.99338135 -37.10051758 73.1742627 -37.63525391 72.33032227 C-40.97844839 66.81177749 -40.97844839 66.81177749 -41.0703125 63.3515625 C-39.62996927 60.18701279 -37.80663452 57.39433367 -35.8125 54.5625 C-34.89351717 53.22163657 -33.97699517 51.87908436 -33.0625 50.53515625 C-32.5675 49.80828613 -32.0725 49.08141602 -31.5625 48.33251953 C-28.73174856 44.10673839 -26.02909568 39.79968628 -23.3125 35.5 C-18.1565413 27.36134999 -12.94764037 19.25923622 -7.6875 11.1875 C-7.03499268 10.18460937 -6.38248535 9.18171875 -5.71020508 8.1484375 C-5.10845459 7.22675781 -4.5067041 6.30507813 -3.88671875 5.35546875 C-3.08560669 4.12799927 -3.08560669 4.12799927 -2.26831055 2.87573242 C-1 1 -1 1 0 0 Z"/>
</svg>
